<svg width="75" height="52" viewBox="0 0 75 52" fill="none" xmlns="http://www.w3.org/2000/svg">
<path d="M2.05664 38.1738V33.3398C3.74414 34.5703 5.71289 35.1855 7.96289 35.1855C9.38086 35.1855 10.4824 34.8809 11.2676 34.2715C12.0645 33.6621 12.4629 32.8125 12.4629 31.7227C12.4629 30.5977 11.9707 29.7305 10.9863 29.1211C10.0137 28.5117 8.67188 28.207 6.96094 28.207H4.62305V23.9531H6.78516C10.0664 23.9531 11.707 22.8633 11.707 20.6836C11.707 18.6328 10.4473 17.6074 7.92773 17.6074C6.24023 17.6074 4.59961 18.1523 3.00586 19.2422V14.707C4.77539 13.8164 6.83789 13.3711 9.19336 13.3711C11.7715 13.3711 13.7754 13.9512 15.2051 15.1113C16.6465 16.2715 17.3672 17.7773 17.3672 19.6289C17.3672 22.9219 15.6973 24.9844 12.3574 25.8164V25.9043C14.1387 26.127 15.5449 26.7773 16.5762 27.8555C17.6074 28.9219 18.123 30.2344 18.123 31.793C18.123 34.1484 17.2617 36.0117 15.5391 37.3828C13.8164 38.7539 11.4375 39.4395 8.40234 39.4395C5.80078 39.4395 3.68555 39.0176 2.05664 38.1738ZM40.2188 30.6152C40.2188 31.8574 40.002 33.0176 39.5684 34.0957C39.1348 35.1738 38.5312 36.1113 37.7578 36.9082C36.9844 37.6934 36.0645 38.3145 34.998 38.7715C33.9316 39.2168 32.7656 39.4395 31.5 39.4395C30.082 39.4395 28.8105 39.1758 27.6855 38.6484C26.5723 38.1211 25.6289 37.3594 24.8555 36.3633C24.082 35.3555 23.4902 34.125 23.0801 32.6719C22.6699 31.2188 22.4648 29.5723 22.4648 27.7324C22.4648 25.5645 22.7285 23.6016 23.2559 21.8438C23.7949 20.0742 24.5566 18.5625 25.541 17.3086C26.5371 16.0547 27.7383 15.0879 29.1445 14.4082C30.5508 13.7168 32.1328 13.3711 33.8906 13.3711C35.8359 13.3711 37.3477 13.5996 38.4258 14.0566V18.6973C37.1484 17.9707 35.7539 17.6074 34.2422 17.6074C33.3047 17.6074 32.4551 17.7891 31.6934 18.1523C30.9316 18.5156 30.2754 19.0312 29.7246 19.6992C29.1855 20.3672 28.7578 21.1758 28.4414 22.125C28.1367 23.0625 27.9727 24.1113 27.9492 25.2715H28.0547C29.25 23.6191 31.0137 22.793 33.3457 22.793C34.3887 22.793 35.332 22.9805 36.1758 23.3555C37.0195 23.7305 37.7402 24.2637 38.3379 24.9551C38.9355 25.6348 39.3984 26.4551 39.7266 27.416C40.0547 28.377 40.2188 29.4434 40.2188 30.6152ZM34.7871 30.9668C34.7871 28.2598 33.6797 26.9062 31.4648 26.9062C30.9609 26.9062 30.5039 27 30.0938 27.1875C29.6836 27.375 29.332 27.6387 29.0391 27.9785C28.7461 28.3184 28.5176 28.7227 28.3535 29.1914C28.2012 29.6484 28.125 30.1582 28.125 30.7207C28.125 31.3418 28.207 31.9219 28.3711 32.4609C28.5352 33 28.7637 33.4746 29.0566 33.8848C29.3613 34.2832 29.7188 34.5996 30.1289 34.834C30.5391 35.0684 30.9961 35.1855 31.5 35.1855C32.0039 35.1855 32.4551 35.0859 32.8535 34.8867C33.2637 34.6758 33.6094 34.3887 33.8906 34.0254C34.1836 33.6504 34.4062 33.2051 34.5586 32.6895C34.7109 32.1621 34.7871 31.5879 34.7871 30.9668ZM51.627 39.4395C45.627 39.4395 42.627 35.2266 42.627 26.8008C42.627 22.4297 43.4355 19.1016 45.0527 16.8164C46.6816 14.5195 49.0371 13.3711 52.1191 13.3711C57.9785 13.3711 60.9082 17.6543 60.9082 26.2207C60.9082 30.4863 60.1055 33.7559 58.5 36.0293C56.9062 38.3027 54.6152 39.4395 51.627 39.4395ZM51.873 17.6074C49.4707 17.6074 48.2695 20.625 48.2695 26.6602C48.2695 32.3438 49.4473 35.1855 51.8027 35.1855C54.0996 35.1855 55.248 32.2559 55.248 26.3965C55.248 20.5371 54.123 17.6074 51.873 17.6074Z" fill="white"/>
<path d="M63 9.16073C63 7.46706 63.5907 6.01685 64.772 4.81011C65.9534 3.60337 67.3731 3 69.0311 3C70.6684 3 72.0725 3.60337 73.2435 4.81011C74.4145 6.01685 75 7.46706 75 9.16073C75 10.8544 74.4145 12.3099 73.2435 13.5272C72.0725 14.7445 70.6684 15.3532 69.0311 15.3532C67.3938 15.3532 65.9793 14.7445 64.7876 13.5272C63.5959 12.3099 63 10.8544 63 9.16073ZM65.9223 9.16073C65.9223 10.0499 66.2228 10.8015 66.8238 11.4154C67.4456 12.0506 68.1813 12.3681 69.0311 12.3681C69.8808 12.3681 70.6166 12.0506 71.2383 11.4154C71.8601 10.7803 72.171 10.0287 72.171 9.16073C72.171 8.29272 71.8601 7.54645 71.2383 6.92191C70.6166 6.29736 69.8808 5.98509 69.0311 5.98509C68.1606 5.98509 67.4249 6.29207 66.8238 6.90603C66.2228 7.51998 65.9223 8.27155 65.9223 9.16073Z" fill="white"/>
</svg>
